<?xml version="1.0" encoding="UTF-8"?>
<svg id="Layer_2" data-name="Layer 2" xmlns="http://www.w3.org/2000/svg" viewBox="0 0 148.24 146.02">
  <defs>
    <style>
      .cls-1 {
        fill: none;
        stroke: #911926;
        stroke-width: 2px;
      }

      .cls-1, .cls-2 {
        stroke-miterlimit: 10;
      }

      .cls-2 {
        stroke: #fffdf7;
        stroke-width: 2.5px;
      }

      .cls-2, .cls-3 {
        fill: #911926;
      }

      .cls-4 {
        fill: #fff;
      }

      .cls-4, .cls-3 {
        stroke-width: 0px;
      }
    </style>
  </defs>
  <g id="Layer_1-2" data-name="Layer 1">
    <g id="_3:_src_brown_border" data-name="3: src@brown border">
      <rect class="cls-3" width="148.24" height="146.02"/>
      <path id="red_compass" data-name="red compass" class="cls-2" d="M128.12,71.64l-10.64,8.12c-3.29,16.62-18.14,29.72-34.81,32.89l-7.19,10.85-6.8-10.86c-16.8-3.19-30.04-16.43-33.21-33.24l-12.56-7.76,12.56-7.54c3.32-17.06,17.56-30.45,33.03-33.44l6.99-11.68,7.19,11.35c15.73,2.37,31.62,16.35,34.88,33.63l10.56,7.68Z"/>
      <g id="directions">
        <path class="cls-4" d="M77.28,36.08h-.82l-2.29-4.48v4.48h-.74v-5.67h.83l2.3,4.44v-4.44h.73v5.67Z"/>
        <path class="cls-4" d="M116.42,74.81h-3.73v-6.35h3.7v.64h-2.87v1.97h2.76v.64h-2.76v2.45h2.9v.64Z"/>
        <path class="cls-4" d="M77.16,108.35c-.38-.12-.74-.17-1.08-.17-.39,0-.7.08-.94.24-.24.16-.36.38-.36.67,0,.34.32.64.96.9.47.19.78.33.93.4s.31.18.46.31c.16.13.28.29.38.46.1.18.14.38.14.6,0,.55-.21.98-.63,1.28-.42.3-.91.46-1.48.46s-1.03-.1-1.44-.29l.15-.57c.49.2.91.29,1.27.29.42,0,.76-.1,1.02-.29s.38-.46.38-.8c0-.25-.08-.47-.25-.64-.17-.18-.47-.35-.92-.54-.46-.19-.75-.32-.89-.38-.13-.07-.27-.16-.4-.28-.13-.12-.23-.26-.31-.41-.07-.15-.11-.31-.11-.49,0-.47.19-.83.57-1.1s.86-.39,1.44-.39c.43,0,.85.06,1.27.17l-.17.56Z"/>
        <path class="cls-4" d="M40.42,69.14l-.81,5.67h-.69l-1.08-3.2-1.08,3.2h-.71l-.8-5.67h.73l.54,4.61.94-2.79h.74l.95,2.8.55-4.62h.72Z"/>
      </g>
      <circle id="white_face" data-name="white face" class="cls-4" cx="76.04" cy="71.73" r="32.69"/>
      <path id="ear_background" data-name="ear background" class="cls-4" d="M100.03,61.89c.46-.75,3.13-6.38,4.35-9.36,1.44-3.51.2-5.97-1.81-7.95-1.65-1.63-4.37-3.55-7.54-3.35-.66.04-1.87.78-4.61,4.69-.25.36,9.61,15.96,9.61,15.96Z"/>
      <path id="ear_background-2" data-name="ear background" class="cls-4" d="M52.09,61.85c-.46-.75-3.13-6.38-4.35-9.36-1.44-3.51-.2-5.97,1.81-7.95,1.65-1.63,4.37-3.55,7.54-3.35.66.04,1.87.78,4.61,4.69.25.36-9.61,15.96-9.61,15.96Z"/>
      <g id="red_face" data-name="red face">
        <g>
          <path class="cls-3" d="M63.56,93.14c-.69.12-.96-.05-1.37-.48-2.06-2.18-3.67-3.44-4.76-5.17-1.26-1.99-1.77-4.24-1.9-6.07-.3-4.46-.13-4.18-.08-6.7.13-.78-.08-1.44.89-2.22.33.86-.22,5.26.21,9.96.28,1.63.97,3.96,2.07,5.14,1.73,1.88,4.8,4.32,4.94,5.54Z"/>
          <path class="cls-3" d="M90.22,92.58c.09-.35.57-.84.67-.89,3.51-1.76,5.6-6.5,6.22-12.73.05-1.3-.3-3.27-.5-4.57-.05-.34-.2-.7-.17-1.03.02-.29.09-.53.24-.81.28.22.5.39.58.67,1.13,3.85.99,7.61-.19,11.35-.82,2.11-1.57,4.26-3.26,6.05-.82,1.13-3.09,2.43-3.6,1.96Z"/>
          <path class="cls-3" d="M76.74,55.82c-1.79-1.89-3.31-2.85-3.41-2.8.12.67.29,1.35.59,2.2-1.05-.4-2.58-1.44-3.52-1.44-.53,0-.31,2.06-.46,1.91-.44-.43-.71-2.7-.71-2.96.55,0,2.87.6,3.19.82-.32-.94-1.1-2.37-1.6-3.45.43-.3,3.22,2.08,4.71,3.43.47.43,1.14,1.45,1.23,2.27Z"/>
          <path class="cls-3" d="M85.56,53.33c-1.08.58-1.68.97-2.7,1.65-.93.63-1.72,1.46-2.6,2.23-1.1-2.59.5-4.86,2.38-6.46.16.99-1.47,2.94-1.31,3.91,1.37-.37,3.2-1.7,4.55-2.06-.07.24-.13.51-.33.73Z"/>
          <path class="cls-3" d="M86.33,56.38c1.75-1.78,7.05-.24,8.79,2.92-1.4-.77-2.73-1.76-4.22-2.25-1.45-.49-3.07-.47-4.57-.67Z"/>
          <path class="cls-3" d="M57.57,57.22c1.49-2.73,6.26-4.3,8.73-2.95-1.61.28-3.08.37-4.43.82-1.38.46-2.64,1.29-4.29,2.13Z"/>
          <path class="cls-3" d="M76.33,83.94c-1.71,3.01-5.5,1.9-6.72.6.86-.24,2.72.66,3.63.32,2.28-.85,2.01-2.82,2.01-2.82-1.45-.47-1.78-1.24-2.62-2.8-.99-1.83-.12-3.32,1.97-3.34,2.2-.02,2.47-.21,4.73.23,2.63.94.42,4.85-.27,5.39-.55.44-1.27.5-1.65.57.16,1.65.88,3.06,2.39,3.3,1.12.17,2.28-1.1,3.4-1.06-1.89,2.7-4.83,2.75-6.86-.4Z"/>
          <path class="cls-3" d="M88.26,66.5c-1.4-.42-2.99-.87-3.77-2.64-.57-1.29-.46-2.26.52-3.24.98-.98,1.92-1.14,3.19-.41.84.48,1.73.96,2.39,1.65.8.83,1.15,1.92.63,3.1-.44,1-1.54,1.61-2.97,1.54Z"/>
          <path class="cls-3" d="M64.36,63.67c-1.14-.45-1.93-1.13-1.93-2.43,0-1.23.64-2.12,1.71-2.67,2.06-1.06,5.5.12,6.5,2.22.64,1.34.21,2.52-1.2,3.02-.77.27-3.01.68-5.09-.15Z"/>
          <path class="cls-3" d="M76.22,66.3c.57-.11,1.17-.03,1.69.24,1.41.73,3.29,2.53,3.76,3.48.96,1.26,1.51,2.71,1.57,4.27.07,1.81.92,3.19,2.05,4.47.88.99,1.83,1.93,2.64,2.98,1.86,2.38,1.25,5.55-1.32,7.12s-5.67,2.26-8.65,2.04c-3.52-.26-7.04-1-10.49-1.8-2.43-.56-3.51-3.41-2.07-5.45,4.43-6.29,3.28-5.92,4.43-11.84.06-.29.14-.59.27-.86,1.05-2.13,3.79-4.22,6.12-4.65ZM88.06,84.37c-.19-.4-.46-1.28-.97-1.98-.78-1.07-1.74-2-2.61-3-1.06-1.22-2.14-3.32-2.16-5-.52-3.45-1.9-4.45-4.14-6.38-.8-.69-1.42-.91-2.49-.58-1.98.86-3.94,1.86-4.66,4.18-.67,2.14-.68,4.86-1.42,6.97-.59,1.7-3.37,5.42-3.62,6.35-.36,1.37-.03,2.41,1.25,2.86.91.32,1.68.73,2.64.83,2.64.29,6.11,1.13,8.84,1.03,2.38-.09,5.05-.45,7.4-1.72,1.15-.62,1.86-1.67,1.93-3.57Z"/>
          <path class="cls-4" d="M64.7,61.15c-.38-.15-.65-.38-.65-.81,0-.41.21-.71.57-.89.69-.36,1.84.04,2.18.74.21.45.07.84-.4,1.01-.26.09-1.01.23-1.7-.05Z"/>
          <path class="cls-4" d="M86.2,62.56c-.38-.15-.65-.38-.65-.81,0-.41.21-.71.57-.89.69-.36,1.84.04,2.18.74.21.45.07.84-.4,1.01-.26.09-1.01.23-1.7-.05Z"/>
        </g>
        <ellipse class="cls-1" cx="76.05" cy="71.62" rx="30.3" ry="30.44"/>
      </g>
      <g id="ears">
        <path class="cls-3" d="M91.91,46.27l9.5,9.47c.29-.46.56-1.11.78-1.56.91-1.84,1.89-4.61.89-6.48-1.22-2.27-4.48-5.06-7.05-5.05-.89,0-1.88-.09-3.61,2.32-.16.22-.35,1.03-.52,1.3Z"/>
        <path class="cls-4" d="M92.18,49.74l7.15,6.56c.11-.4,4.18-5.63,1.97-8.46-1.35-1.72-3.69-3.48-5.54-3.12-2.2.44-3.5,4.79-3.57,5.02Z"/>
        <path class="cls-3" d="M99.18,53.72l-5.06-5.24c.22-.27.8-2.05,2.03-2.19,1.47-.17,3.64,1.15,4.31,3.15.5,1.49-1.15,4.12-1.28,4.28Z"/>
      </g>
      <g id="ears-2" data-name="ears">
        <path class="cls-3" d="M60.1,46.14l-9.5,9.47c-.29-.46-.56-1.11-.78-1.56-.91-1.84-1.89-4.61-.89-6.48,1.22-2.27,4.48-5.06,7.05-5.05.89,0,1.88-.09,3.61,2.32.16.22.35,1.03.52,1.3Z"/>
        <path class="cls-4" d="M59.83,49.61l-7.15,6.56c-.11-.4-4.18-5.63-1.97-8.46,1.35-1.72,3.69-3.48,5.54-3.12,2.2.44,3.5,4.79,3.57,5.02Z"/>
        <path class="cls-3" d="M52.83,53.59l5.06-5.24c-.22-.27-.8-2.05-2.03-2.19-1.47-.17-3.64,1.15-4.31,3.15-.5,1.49,1.15,4.12,1.28,4.28Z"/>
      </g>
      <g id="_src_brown_text" data-name="&amp;gt;src@brown text">
        <path class="cls-4" d="M33.33,127.72c.15-.21.35-.37.61-.5.25-.13.52-.19.8-.19.52,0,.93.21,1.22.63s.44.97.44,1.66-.16,1.27-.47,1.74c-.31.46-.73.7-1.25.7-.28,0-.54-.07-.78-.21s-.44-.32-.58-.55v.65h-.67v-6.09h.67v2.18ZM33.33,128.39v1.87c.13.25.3.46.51.63.22.17.44.25.67.25.36,0,.65-.17.87-.52.21-.35.32-.77.32-1.27s-.1-.94-.31-1.26c-.2-.32-.49-.48-.85-.48-.47,0-.88.26-1.21.78Z"/>
        <path class="cls-4" d="M41.5,127.26l-.27.65c-.3-.13-.55-.19-.77-.19-.2,0-.39.06-.58.17-.19.11-.36.28-.52.49-.16.21-.24.33-.24.36v2.91h-.67v-4.5h.67v.91c.36-.68.83-1.02,1.4-1.02.34,0,.67.08.99.23Z"/>
        <path class="cls-4" d="M44.72,127.03c.62,0,1.11.22,1.48.65s.55,1,.55,1.71-.18,1.28-.55,1.72-.86.65-1.48.65-1.11-.22-1.48-.65c-.36-.43-.55-1.01-.55-1.72s.18-1.28.55-1.71c.37-.43.86-.65,1.48-.65ZM44.72,131.17c.41,0,.73-.17.97-.52.24-.35.35-.76.35-1.26,0-.52-.12-.94-.35-1.28-.23-.33-.56-.5-.97-.5s-.74.16-.97.49c-.23.33-.34.76-.34,1.28s.12.92.35,1.26c.23.34.55.51.97.51Z"/>
        <path class="cls-4" d="M52.57,127.14l-.65,4.5h-.51l-1.06-2.55-1.06,2.55h-.51l-.63-4.5h.67c.24,2.1.36,3.2.37,3.31l.83-1.96h.69l.82,1.94.36-3.29h.69Z"/>
        <path class="cls-4" d="M57.66,131.59h-.67v-2.88c0-.4-.06-.69-.19-.87s-.33-.27-.6-.27c-.41,0-.85.26-1.33.77v3.25h-.67v-4.5h.67v.66c.48-.51.99-.77,1.53-.77.84,0,1.26.51,1.26,1.53v3.08Z"/>
        <path class="cls-4" d="M28.02,131.83c-.56.29-1.12.4-1.8.4-1.66,0-3.06-1.21-3.06-3.15,0-2.08,1.45-3.88,3.69-3.88,1.76,0,2.93,1.23,2.93,2.92,0,1.52-.85,2.4-1.79,2.4-.4,0-.78-.27-.75-.89h-.03c-.36.6-.82.89-1.43.89s-1.09-.47-1.09-1.27c0-1.25.99-2.4,2.39-2.4.43,0,.82.09,1.09.21l-.34,1.83c-.15.77-.04,1.12.3,1.13.52.02,1.09-.67,1.09-1.84,0-1.47-.88-2.52-2.45-2.52s-3.03,1.3-3.03,3.35c0,1.68,1.1,2.73,2.59,2.73.58,0,1.12-.13,1.53-.36l.16.44ZM27.47,127.47c-.11-.04-.28-.08-.51-.08-.89,0-1.61.84-1.61,1.82,0,.45.23.77.67.77.58,0,1.12-.75,1.23-1.37l.22-1.14Z"/>
        <path class="cls-4" d="M24.61,116.47c-.38-.12-.73-.19-1.07-.19-.37,0-.65.06-.87.18-.21.12-.32.29-.32.49,0,.13.05.24.15.34.1.1.29.19.59.27l.64.19c.3.08.54.18.73.3.19.12.33.26.42.42s.14.36.14.58c0,.43-.18.77-.54,1.02s-.82.37-1.37.37-1.01-.08-1.37-.25l.13-.58c.38.18.78.27,1.21.27.37,0,.68-.07.91-.21s.35-.32.35-.55c0-.16-.06-.29-.17-.42-.12-.12-.39-.25-.82-.38-.35-.11-.6-.19-.77-.24s-.32-.13-.46-.24c-.14-.1-.25-.23-.32-.37-.07-.14-.11-.3-.11-.48,0-.39.17-.7.51-.92.34-.23.79-.34,1.35-.34.36,0,.76.06,1.21.19l-.15.57Z"/>
        <path class="cls-4" d="M30.46,115.95l-.27.65c-.3-.13-.55-.19-.77-.19-.2,0-.39.06-.58.17-.19.11-.36.28-.52.49-.16.21-.24.33-.24.36v2.91h-.67v-4.5h.67v.91c.36-.68.83-1.02,1.4-1.02.34,0,.67.08.99.23Z"/>
        <path class="cls-4" d="M35.67,120.18c-.39.18-.82.27-1.29.27-.71,0-1.27-.22-1.69-.65-.42-.43-.63-1-.63-1.72s.21-1.29.64-1.72c.42-.43.98-.65,1.67-.65.45,0,.88.08,1.29.24l-.18.56c-.41-.14-.78-.21-1.11-.21-.5,0-.89.16-1.18.48s-.43.75-.43,1.3c0,.5.15.92.45,1.26.3.34.69.51,1.17.51.38,0,.77-.07,1.17-.22l.12.54Z"/>
        <path class="cls-4" d="M18.68,118.39l-3.23,1.94v-.63l2.59-1.54-2.59-1.58v-.62l3.23,1.92v.52Z"/>
      </g>
    </g>
  </g>
</svg>